<?xml version="1.0" encoding="UTF-8"?>
<svg id="Layer_1" xmlns="http://www.w3.org/2000/svg" xmlns:xlink="http://www.w3.org/1999/xlink" viewBox="0 0 244.56 250.48">
  <defs>
    <style>
      .cls-1 {
        fill: url(#linear-gradient-3);
      }

      .cls-1, .cls-2, .cls-3, .cls-4, .cls-5, .cls-6, .cls-7, .cls-8 {
        fill-rule: evenodd;
      }

      .cls-2 {
        fill: url(#linear-gradient-5);
      }

      .cls-3 {
        fill: url(#linear-gradient-2);
      }

      .cls-4 {
        fill: url(#linear-gradient-6);
      }

      .cls-5 {
        fill: url(#linear-gradient-4);
      }

      .cls-6 {
        fill: url(#linear-gradient-7);
      }

      .cls-7 {
        fill: url(#linear-gradient-8);
      }

      .cls-8 {
        fill: url(#linear-gradient);
      }
    </style>
    <linearGradient id="linear-gradient" x1="122.28" y1="244.45" x2="122.28" y2="189.78" gradientUnits="userSpaceOnUse">
      <stop offset="0" stop-color="#805210"/>
      <stop offset=".5" stop-color="#dda920"/>
      <stop offset="1" stop-color="#f9e37e"/>
    </linearGradient>
    <linearGradient id="linear-gradient-2" y1="136.92" x2="122.28" y2="6.02" xlink:href="#linear-gradient"/>
    <linearGradient id="linear-gradient-3" x1="139.48" y1="154.01" x2="203.85" y2="154.01" xlink:href="#linear-gradient"/>
    <linearGradient id="linear-gradient-4" x1="101.62" y1="166.47" x2="87.7" y2="190.59" xlink:href="#linear-gradient"/>
    <linearGradient id="linear-gradient-5" x1="105.06" y1="154" x2="40.71" y2="154" xlink:href="#linear-gradient"/>
    <linearGradient id="linear-gradient-6" x1="139.6" y1="168.76" x2="160.59" y2="189.75" xlink:href="#linear-gradient"/>
    <linearGradient id="linear-gradient-7" x1="122.27" y1="142.07" x2="122.27" y2="70.92" xlink:href="#linear-gradient"/>
    <linearGradient id="linear-gradient-8" x1="122.27" y1="176.18" x2="122.27" y2="144.68" xlink:href="#linear-gradient"/>
  </defs>
  <path class="cls-8" d="M7.73,230.62v-27.67h7.9v1.95c2.96-1.75,6.15-2.61,9.56-2.61,1.78,0,3.39.23,4.85.69,1.45.46,2.73,1.16,3.84,2.11,1.1.93,1.95,2.2,2.57,3.77.6,1.58.91,3.4.91,5.48,0,3.49-1.1,8.93-3.29,16.28h-5.6c.44-5.45.66-9.16.66-11.13,0-3.24-.25-5.77-.77-7.61-.52-1.83-1.28-3.12-2.29-3.86-1.02-.74-2.39-1.11-4.13-1.11-1.89,0-4,.44-6.31,1.32v22.4h-7.9ZM41.32,220.2c0-1.24.22-3.3.65-6.18.43-2.88.86-5.43,1.28-7.68l.64-3.38h7.27c-1.06,8.65-1.6,14.65-1.6,17.99,0,2.32.53,4.12,1.57,5.42,1.05,1.3,2.83,1.94,5.33,1.94,4.62,0,6.93-2.46,6.93-7.37,0-1.48-.17-3.72-.48-6.73-.32-3.01-.64-5.63-.97-7.88l-.47-3.38h7.59c1.71,8.68,2.57,14.44,2.57,17.25,0,1.61-.26,3.05-.79,4.34-.53,1.27-1.24,2.33-2.15,3.16-.91.85-2.01,1.53-3.3,2.06-1.3.54-2.68.92-4.15,1.16-1.47.23-3.06.35-4.76.35s-3.3-.12-4.75-.35c-1.46-.24-2.84-.63-4.15-1.16s-2.42-1.22-3.32-2.06c-.9-.83-1.6-1.89-2.13-3.16-.53-1.28-.79-2.72-.79-4.34h0ZM73.57,226.93l1.67-2.58c.15.11.36.25.63.44.27.18.84.49,1.72.94.88.45,1.79.86,2.73,1.2.94.34,2.12.66,3.53.94,1.42.3,2.82.44,4.22.44,4.39,0,6.59-1.21,6.59-3.61,0-1.11-.59-1.99-1.77-2.63s-3.65-1.55-7.39-2.7c-3.15-.97-5.49-2.16-7-3.58-1.53-1.42-2.28-3.28-2.28-5.6s1.1-4.26,3.28-5.71c2.18-1.46,5.24-2.18,9.16-2.18,4.8,0,9.1,1.21,12.91,3.61l-1.57,2.63c-3.67-2.18-7.37-3.28-11.12-3.28-3.17,0-4.75,1.05-4.75,3.15,0,.91.52,1.67,1.56,2.29,1.04.61,3.06,1.37,6.09,2.25,1.9.54,3.55,1.15,4.93,1.83,1.38.69,2.44,1.35,3.18,1.98.74.64,1.32,1.34,1.73,2.1.42.77.68,1.43.78,1.99.11.55.16,1.17.16,1.87,0,2.59-1.15,4.67-3.47,6.22-2.32,1.56-5.74,2.34-10.29,2.34-1.8,0-3.55-.15-5.26-.45-1.7-.3-3.13-.66-4.29-1.08-1.15-.43-2.17-.85-3.07-1.27-.89-.43-1.55-.8-1.98-1.1l-.64-.45h0ZM106.2,220.2c0-1.24.22-3.3.65-6.18s.86-5.43,1.28-7.68l.64-3.38h7.27c-1.06,8.65-1.6,14.65-1.6,17.99,0,2.32.53,4.12,1.57,5.42,1.05,1.3,2.83,1.94,5.34,1.94,4.62,0,6.93-2.46,6.93-7.37,0-1.48-.17-3.72-.48-6.73-.32-3.01-.64-5.63-.97-7.88l-.47-3.38h7.59c1.71,8.68,2.57,14.44,2.57,17.25,0,1.61-.26,3.05-.79,4.34-.53,1.27-1.24,2.33-2.15,3.16-.91.85-2.01,1.53-3.3,2.06s-2.68.92-4.15,1.16c-1.47.23-3.06.35-4.76.35s-3.3-.12-4.75-.35c-1.46-.24-2.84-.63-4.15-1.16-1.31-.54-2.42-1.22-3.32-2.06-.9-.83-1.6-1.89-2.13-3.16-.53-1.28-.79-2.72-.79-4.34h0ZM141.01,230.62v-40.84h7.9v29.89c3.5-1.67,6.51-3.6,9.05-5.79,2.54-2.2,3.8-4.17,3.8-5.96,0-.68-.2-1.25-.6-1.72-.41-.46-.98-.77-1.7-.94v-2.96c.9,0,1.8.05,2.7.16.9.1,1.83.3,2.79.57.97.27,1.81.63,2.55,1.05.72.43,1.33,1,1.8,1.71.47.72.7,1.53.7,2.43,0,3.22-2.77,6.32-8.3,9.33l8.62,13.06h-8.87l-6.48-9.62-6.05,2.63v6.98h-7.9ZM171.97,217.32c0-2.66.61-5.12,1.83-7.38,1.22-2.26,3.03-4.11,5.42-5.52,2.38-1.42,5.14-2.12,8.24-2.12.66,0,1.33.02,1.99.08.67.05,1.51.2,2.54.44,1.03.23,1.99.56,2.85.97.88.41,1.79,1,2.73,1.77.94.77,1.75,1.67,2.4,2.7.67,1.03,1.22,2.35,1.65,3.94.43,1.6.64,3.37.64,5.32h-19.56v-2.96h11c-.11-6.19-2.31-9.29-6.59-9.29-4.61,0-6.92,4.08-6.92,12.25,0,3.67.76,6.38,2.28,8.15,1.53,1.77,3.5,2.66,5.95,2.66,1.94,0,3.73-.41,5.36-1.21,1.64-.8,2.81-1.82,3.53-3.07l2.31,1.65c-1,1.69-2.55,3.05-4.62,4.07-2.08,1.02-4.48,1.53-7.22,1.53-2.27,0-4.34-.26-6.2-.79-1.87-.53-3.52-1.33-4.98-2.42-1.46-1.08-2.59-2.54-3.41-4.37-.81-1.83-1.22-3.96-1.22-6.39h0ZM205.87,212.38c0-1.69.33-3.18.98-4.47.66-1.27,1.56-2.31,2.7-3.07,1.15-.77,2.43-1.36,3.84-1.78,1.42-.42,2.98-.67,4.67-.76v2.96c-2.64.65-3.95,2.31-3.95,4.98,0,6.65,3.93,12.02,11.79,16.09l3.36-23.38h7.57l-3.15,23.32c-.36,2.81-1.11,5.3-2.24,7.49-1.12,2.17-2.39,3.91-3.82,5.19-1.43,1.28-3.06,2.35-4.92,3.18-1.86.83-3.58,1.42-5.17,1.73-1.6.33-3.25.52-4.94.58v-2.96c1.35-.09,2.61-.3,3.77-.65,1.16-.34,2.14-.74,2.94-1.21.8-.46,1.55-1.02,2.22-1.68.68-.67,1.22-1.3,1.62-1.87.41-.58.79-1.25,1.13-2.02.34-.76.58-1.37.72-1.83.13-.46.3-1,.46-1.62-3-1.45-5.6-2.84-7.82-4.16-2.21-1.32-4.24-2.73-6.09-4.25-1.86-1.51-3.26-3.1-4.23-4.74-.97-1.66-1.45-3.35-1.45-5.08h0Z"/>
  <path class="cls-3" d="M55.64,109.57H18.6l37.73,9.73c.79,5.46,2.24,10.71,4.26,15.65l9.99-2.4c-3.09-6.99-4.81-14.72-4.81-22.85v-.13s-6.3,0-6.3,0h-3.83ZM122.41,43.06v10.13h-.13c-13.28,0-25.48,4.58-35.13,12.24l-7.2-7.2c9.18-7.56,20.41-12.71,32.73-14.48l9.73-37.72v37.04h0ZM127.91,31.86c.04-.46.45-.81.91-.77.46.04.81.45.77.91l-.5,5.99c-.04.46-.45.81-.91.77-.46-.04-.81-.45-.77-.91l.5-5.99h0ZM110.3,38.68c.08.46-.22.9-.68.98-.46.08-.9-.22-.98-.68l-1.07-5.92c-.08-.46.22-.9.68-.98.46-.08.9.22.98.68l1.07,5.92h0ZM147.86,35.97c.16-.44.64-.67,1.08-.51.44.16.67.64.51,1.08l-2.03,5.66c-.16.44-.64.67-1.08.51-.44-.16-.67-.64-.51-1.08l2.03-5.66h0ZM166.07,45.11c.27-.38.79-.48,1.18-.21.38.27.48.79.21,1.17l-3.43,4.94c-.27.38-.79.48-1.17.21-.38-.27-.48-.79-.21-1.18l3.43-4.94h0ZM181.3,58.64c.36-.3.89-.26,1.19.1.3.36.26.89-.1,1.19l-4.59,3.89c-.36.3-.89.26-1.19-.1-.3-.36-.26-.89.1-1.19l4.59-3.89h0ZM192.5,75.66c.42-.2.92-.02,1.12.4.2.42.02.92-.4,1.12l-5.44,2.56c-.42.2-.93.02-1.12-.4-.2-.42-.02-.93.4-1.12l5.44-2.56h0ZM198.92,94.99c.46-.08.9.22.98.68.08.46-.22.9-.68.98l-5.92,1.07c-.46.08-.9-.22-.98-.68-.08-.46.22-.9.68-.98l5.92-1.07h0ZM51.26,121.68c.46-.08.9.22.98.68.08.46-.22.9-.68.98l-5.92,1.07c-.46.08-.9-.22-.98-.68-.08-.46.22-.9.68-.98l5.92-1.07h0ZM200.12,115.33c.46.04.81.45.77.91-.04.46-.45.81-.91.77l-5.99-.5c-.47-.04-.81-.45-.77-.91.04-.46.45-.81.91-.77l5.99.5h0ZM50.58,102.89c.47.04.81.45.77.91-.04.46-.45.81-.91.77l-5.99-.5c-.46-.04-.81-.45-.77-.91.04-.47.45-.81.91-.77l5.99.5h0ZM196.01,135.28c.44.16.67.64.51,1.08-.16.44-.64.67-1.08.51l-5.66-2.03c-.44-.16-.67-.64-.51-1.08.16-.44.64-.67,1.08-.51l5.66,2.03h0ZM54.78,84.56c.44.16.67.64.51,1.08-.16.44-.64.67-1.08.51l-5.66-2.03c-.44-.16-.67-.64-.51-1.08.16-.44.64-.67,1.08-.51l5.66,2.03h0ZM63.59,67.95c.38.27.48.79.21,1.17-.27.38-.79.48-1.18.21l-4.94-3.43c-.38-.27-.48-.79-.21-1.18.27-.38.79-.48,1.17-.21l4.94,3.43h0ZM76.4,54.18c.3.36.26.89-.1,1.19-.36.3-.89.26-1.19-.1l-3.89-4.59c-.3-.36-.26-.89.1-1.19.36-.3.89-.26,1.19.1l3.89,4.59h0ZM92.33,44.2c.2.42.02.92-.4,1.12-.42.2-.93.02-1.12-.4l-2.56-5.44c-.2-.42-.02-.93.4-1.12.42-.2.92-.02,1.12.4l2.57,5.44h0ZM101.34,40.79c.14.44-.11.92-.55,1.06-.44.14-.92-.1-1.06-.55l-1.81-5.73c-.14-.44.11-.92.55-1.06.44-.14.92.11,1.06.55l1.82,5.73h0ZM138.25,33.31c.1-.46.55-.74,1.01-.64.45.1.74.55.64,1.01l-1.29,5.87c-.1.46-.55.74-1.01.64-.46-.1-.74-.55-.64-1.01l1.29-5.87h0ZM157.48,40.05c.21-.41.72-.58,1.14-.36.41.21.58.72.36,1.14l-2.77,5.34c-.22.41-.73.58-1.14.36-.41-.21-.58-.72-.36-1.14l2.77-5.34h0ZM187.59,66.98c.39-.25.91-.14,1.17.26.25.39.14.91-.26,1.17l-5.07,3.24c-.39.25-.92.14-1.17-.26-.25-.39-.14-.92.26-1.17l5.07-3.24h0ZM196.42,85.34c.44-.14.92.11,1.06.55.14.44-.11.92-.55,1.06l-5.73,1.82c-.44.14-.92-.11-1.06-.55-.14-.44.1-.92.55-1.06l5.73-1.82h0ZM53.36,130.64c.44-.14.92.11,1.06.55.14.44-.1.92-.55,1.06l-5.73,1.82c-.44.14-.92-.11-1.06-.55-.14-.44.11-.92.55-1.06l5.73-1.82h0ZM198.67,125.67c.46.1.74.55.64,1.01-.1.45-.55.74-1.01.64l-5.87-1.29c-.46-.1-.74-.55-.64-1.01.1-.46.55-.74,1.01-.64l5.87,1.29h0ZM52.13,93.38c.46.1.74.55.64,1.01-.1.46-.55.74-1.01.64l-5.87-1.3c-.46-.1-.74-.55-.64-1.01.1-.45.55-.74,1.01-.64l5.87,1.3h0ZM58.74,75.78c.41.21.57.72.36,1.14-.22.41-.73.58-1.14.36l-5.34-2.77c-.41-.21-.58-.72-.36-1.14.21-.41.72-.57,1.14-.36l5.34,2.77h0ZM84.22,48.55c.25.39.14.91-.26,1.17-.39.25-.92.14-1.17-.26l-3.24-5.07c-.25-.39-.14-.92.26-1.17.39-.25.92-.14,1.17.26l3.24,5.07h0ZM80.74,67.96l-20.04-20.04,9.86,19.75c-8.05,9.9-13.32,22.15-14.61,35.57h10.19c1.48-13.02,7.39-24.7,16.18-33.49l.09-.09-1.68-1.68h0ZM183.96,134.95c2.41-5.89,4.01-12.2,4.64-18.79h-10.19c-.66,5.77-2.18,11.28-4.45,16.39l9.99,2.4h0ZM164.02,68.17l20.04-20.04-19.75,9.86c-9.9-8.05-22.15-13.32-35.56-14.61v10.19c13.02,1.48,24.7,7.39,33.49,16.18l.09.09,1.68-1.68h0ZM188.92,109.83h37.04l-37.73-9.73c-1.78-12.32-6.93-23.56-14.48-32.73l-7.2,7.2c7.66,9.64,12.24,21.85,12.24,35.13v.13s6.3,0,6.3,0h3.83Z"/>
  <path class="cls-1" d="M139.48,150.86c19.41-5.91,40.74-7.24,64.38-3.03l-8.55,13.92c-19.29-2.45-37.02-1.98-53.47.9.08-.73.12-1.46.12-2.21,0-3.47-.9-6.74-2.48-9.57h0Z"/>
  <path class="cls-5" d="M80.86,186.64c7.38-7.08,15.09-13.37,23.17-18.78.75,1.83,1.76,3.52,2.99,5.03-9.12,3.84-17.81,8.46-26.16,13.75h0Z"/>
  <path class="cls-2" d="M105.06,150.85c-19.41-5.9-40.73-7.23-64.35-3.03l8.55,13.92c19.28-2.45,37-1.98,53.44.89-.08-.72-.12-1.46-.12-2.21,0-3.48.9-6.74,2.48-9.58h0Z"/>
  <path class="cls-4" d="M163.69,186.64c-7.39-7.08-15.1-13.38-23.19-18.79-.75,1.83-1.76,3.53-2.99,5.04,9.12,3.84,17.83,8.47,26.18,13.76h0Z"/>
  <path class="cls-6" d="M154.26,84.89l-31.99-8.57-31.99,8.57,31.99,8.57,31.99-8.57h0ZM55.93,141.59l22.05-5.29v-53.51l1.56-.42,42.06-11.27.57-.15.1-.03.1.03.57.15,42.06,11.27,1.53.41v53.51l22.05,5.29c-9.48-.75-18.57-.57-27.31.48v-23.05l-39.01,10.45-39.04-10.46v23.06c-8.73-1.05-17.82-1.23-27.31-.48h0ZM83.24,88.4v9.98l39.04,10.46,39.01-10.45v-9.98l-38.34,10.27-.57.15-.1.03-.1-.03-.57-.15-38.37-10.28h0ZM83.24,109.3v3.84l39.04,10.46,39.01-10.45v-3.84l-39.01,10.45-39.04-10.46h0Z"/>
  <path class="cls-7" d="M122.26,144.68c8.7,0,15.75,7.05,15.75,15.75s-7.05,15.75-15.75,15.75-15.75-7.05-15.75-15.75,7.05-15.75,15.75-15.75h0ZM122.26,168.08h-4.19l2.11-7.93c-1.14-.7-1.9-1.96-1.9-3.39,0-2.2,1.78-3.98,3.98-3.98s3.98,1.78,3.98,3.98c0,1.44-.76,2.69-1.9,3.39l2.11,7.93h-4.2Z"/>
</svg>