<?xml version="1.0" encoding="UTF-8" standalone="no"?>
<svg
   xmlns:dc="http://purl.org/dc/elements/1.1/"
   xmlns:cc="http://creativecommons.org/ns#"
   xmlns:rdf="http://www.w3.org/1999/02/22-rdf-syntax-ns#"
   xmlns:svg="http://www.w3.org/2000/svg"
   xmlns="http://www.w3.org/2000/svg"
   viewBox="0 0 1248 768"
   height="768"
   width="1248"
   xml:space="preserve"
   id="svg2"
   version="1.1"><metadata
     id="metadata8"><rdf:RDF><cc:Work
         rdf:about=""><dc:format>image/svg+xml</dc:format><dc:type
           rdf:resource="http://purl.org/dc/dcmitype/StillImage" /></cc:Work></rdf:RDF></metadata><defs
     id="defs6"><linearGradient
       id="linearGradient32"
       spreadMethod="pad"
       gradientTransform="matrix(0,54.671875,54.671875,0,467.99988,168.78456)"
       gradientUnits="userSpaceOnUse"
       y2="0"
       x2="1"
       y1="0"
       x1="0"><stop
         id="stop26"
         offset="0"
         style="stop-opacity:1;stop-color:#805210" /><stop
         id="stop28"
         offset="0.497537"
         style="stop-opacity:1;stop-color:#dda920" /><stop
         id="stop30"
         offset="1"
         style="stop-opacity:1;stop-color:#f9e37e" /></linearGradient><linearGradient
       id="linearGradient54"
       spreadMethod="pad"
       gradientTransform="matrix(0,130.9006,130.9006,0,467.99988,276.31485)"
       gradientUnits="userSpaceOnUse"
       y2="0"
       x2="1"
       y1="0"
       x1="0"><stop
         id="stop48"
         offset="0"
         style="stop-opacity:1;stop-color:#805210" /><stop
         id="stop50"
         offset="0.497537"
         style="stop-opacity:1;stop-color:#dda920" /><stop
         id="stop52"
         offset="1"
         style="stop-opacity:1;stop-color:#f9e37e" /></linearGradient><linearGradient
       id="linearGradient76"
       spreadMethod="pad"
       gradientTransform="matrix(64.376465,0,0,-64.376465,485.19629,259.23297)"
       gradientUnits="userSpaceOnUse"
       y2="0"
       x2="1"
       y1="0"
       x1="0"><stop
         id="stop70"
         offset="0"
         style="stop-opacity:1;stop-color:#805210" /><stop
         id="stop72"
         offset="0.497537"
         style="stop-opacity:1;stop-color:#dda920" /><stop
         id="stop74"
         offset="1"
         style="stop-opacity:1;stop-color:#f9e37e" /></linearGradient><linearGradient
       id="linearGradient98"
       spreadMethod="pad"
       gradientTransform="matrix(-13.922491,-24.114462,-24.114462,13.922491,447.34039,246.76755)"
       gradientUnits="userSpaceOnUse"
       y2="0"
       x2="1"
       y1="0"
       x1="0"><stop
         id="stop92"
         offset="0"
         style="stop-opacity:1;stop-color:#805210" /><stop
         id="stop94"
         offset="0.497537"
         style="stop-opacity:1;stop-color:#dda920" /><stop
         id="stop96"
         offset="1"
         style="stop-opacity:1;stop-color:#f9e37e" /></linearGradient><linearGradient
       id="linearGradient120"
       spreadMethod="pad"
       gradientTransform="matrix(-64.353027,0,0,64.353027,450.78027,259.23557)"
       gradientUnits="userSpaceOnUse"
       y2="0"
       x2="1"
       y1="0"
       x1="0"><stop
         id="stop114"
         offset="0"
         style="stop-opacity:1;stop-color:#805210" /><stop
         id="stop116"
         offset="0.497537"
         style="stop-opacity:1;stop-color:#dda920" /><stop
         id="stop118"
         offset="1"
         style="stop-opacity:1;stop-color:#f9e37e" /></linearGradient><linearGradient
       id="linearGradient142"
       spreadMethod="pad"
       gradientTransform="matrix(20.989868,-20.989868,-20.989868,-20.989868,485.31906,244.48216)"
       gradientUnits="userSpaceOnUse"
       y2="0"
       x2="1"
       y1="0"
       x1="0"><stop
         id="stop136"
         offset="0"
         style="stop-opacity:1;stop-color:#805210" /><stop
         id="stop138"
         offset="0.497537"
         style="stop-opacity:1;stop-color:#dda920" /><stop
         id="stop140"
         offset="1"
         style="stop-opacity:1;stop-color:#f9e37e" /></linearGradient><linearGradient
       id="linearGradient164"
       spreadMethod="pad"
       gradientTransform="matrix(0,71.150269,71.150269,0,467.98621,271.16992)"
       gradientUnits="userSpaceOnUse"
       y2="0"
       x2="1"
       y1="0"
       x1="0"><stop
         id="stop158"
         offset="0"
         style="stop-opacity:1;stop-color:#805210" /><stop
         id="stop160"
         offset="0.497537"
         style="stop-opacity:1;stop-color:#dda920" /><stop
         id="stop162"
         offset="1"
         style="stop-opacity:1;stop-color:#f9e37e" /></linearGradient><linearGradient
       id="linearGradient186"
       spreadMethod="pad"
       gradientTransform="matrix(0,31.501343,31.501343,0,467.98633,237.06044)"
       gradientUnits="userSpaceOnUse"
       y2="0"
       x2="1"
       y1="0"
       x1="0"><stop
         id="stop180"
         offset="0"
         style="stop-opacity:1;stop-color:#805210" /><stop
         id="stop182"
         offset="0.497537"
         style="stop-opacity:1;stop-color:#dda920" /><stop
         id="stop184"
         offset="1"
         style="stop-opacity:1;stop-color:#f9e37e" /></linearGradient></defs><g
     transform="matrix(1.3333333,0,0,-1.3333333,0,768)"
     id="g10"><path
       id="path12"
       style="fill:#021f0d;fill-opacity:1;fill-rule:nonzero;stroke:none"
       d="M 0,0 H 936 V 576 H 0 Z" /><g
       id="g14"><g
         id="g16"><g
           id="g22"><g
             id="g24"><path
               id="path34"
               style="fill:url(#linearGradient32);stroke:none"
               d="m 486.734,223.456 v -40.839 h 7.904 v 6.982 l 6.05,2.636 6.476,-9.618 h 8.872 l -8.619,13.065 c 5.534,3.007 8.3,6.114 8.3,9.331 v 0 c 0,0.9 -0.231,1.702 -0.703,2.426 v 0 c -0.472,0.713 -1.076,1.284 -1.801,1.713 v 0 c -0.736,0.427 -1.58,0.779 -2.547,1.054 v 0 c -0.955,0.274 -1.888,0.471 -2.788,0.57 v 0 c -0.9,0.11 -1.801,0.165 -2.701,0.165 v 0 -2.964 c 0.725,-0.176 1.296,-0.483 1.702,-0.944 v 0 c 0.406,-0.472 0.604,-1.043 0.604,-1.723 v 0 c 0,-1.79 -1.263,-3.767 -3.798,-5.962 v 0 c -2.536,-2.185 -5.545,-4.116 -9.047,-5.786 v 0 29.894 z m 72.379,-13.273 c -1.416,-0.417 -2.689,-1.01 -3.842,-1.778 v 0 c -1.142,-0.768 -2.042,-1.801 -2.7,-3.074 v 0 c -0.648,-1.284 -0.978,-2.777 -0.978,-4.468 v 0 c 0,-1.734 0.483,-3.425 1.449,-5.083 v 0 c 0.966,-1.646 2.371,-3.228 4.227,-4.742 v 0 c 1.855,-1.516 3.886,-2.932 6.093,-4.248 v 0 c 2.218,-1.318 4.82,-2.712 7.816,-4.162 v 0 c -0.164,-0.625 -0.329,-1.164 -0.46,-1.625 v 0 c -0.143,-0.46 -0.385,-1.076 -0.726,-1.833 v 0 c -0.34,-0.768 -0.723,-1.438 -1.13,-2.02 v 0 c -0.406,-0.571 -0.944,-1.196 -1.625,-1.867 v 0 c -0.669,-0.658 -1.416,-1.218 -2.217,-1.678 v 0 c -0.802,-0.473 -1.778,-0.868 -2.943,-1.208 v 0 c -1.152,-0.352 -2.415,-0.56 -3.765,-0.648 v 0 -2.965 c 1.691,0.067 3.337,0.253 4.94,0.583 v 0 c 1.592,0.318 3.316,0.899 5.171,1.734 v 0 c 1.856,0.834 3.491,1.9 4.918,3.184 v 0 c 1.428,1.284 2.701,3.019 3.82,5.192 v 0 c 1.131,2.185 1.877,4.677 2.24,7.487 v 0 l 3.151,23.318 h -7.575 l -3.359,-23.384 c -7.861,4.074 -11.791,9.441 -11.791,16.094 v 0 c 0,2.68 1.318,4.337 3.953,4.985 v 0 2.964 c -1.691,-0.088 -3.251,-0.34 -4.667,-0.758 m -34.164,-1.361 c -2.394,-1.416 -4.204,-3.26 -5.423,-5.522 v 0 c -1.219,-2.262 -1.833,-4.72 -1.833,-7.377 v 0 c 0,-2.426 0.406,-4.556 1.218,-6.389 v 0 c 0.824,-1.834 1.954,-3.294 3.414,-4.37 v 0 c 1.461,-1.086 3.118,-1.888 4.985,-2.415 v 0 c 1.866,-0.527 3.929,-0.791 6.203,-0.791 v 0 c 2.744,0 5.148,0.506 7.223,1.527 v 0 c 2.075,1.02 3.623,2.382 4.622,4.072 v 0 l -2.306,1.647 c -0.725,-1.252 -1.899,-2.272 -3.534,-3.073 v 0 c -1.625,-0.802 -3.415,-1.208 -5.358,-1.208 v 0 c -2.448,0 -4.424,0.889 -5.95,2.657 v 0 c -1.525,1.766 -2.284,4.478 -2.284,8.146 v 0 c 0,8.167 2.306,12.251 6.916,12.251 v 0 c 4.283,0 6.478,-3.096 6.588,-9.288 v 0 h -11 v -2.963 h 19.563 c 0,1.954 -0.209,3.721 -0.637,5.324 v 0 c -0.428,1.591 -0.978,2.909 -1.646,3.941 v 0 c -0.66,1.032 -1.46,1.932 -2.405,2.7 v 0 c -0.944,0.769 -1.855,1.362 -2.734,1.769 v 0 c -0.867,0.405 -1.822,0.735 -2.854,0.965 v 0 c -1.021,0.242 -1.866,0.385 -2.536,0.44 v 0 c -0.658,0.054 -1.329,0.076 -1.987,0.076 v 0 c -3.107,0 -5.862,-0.703 -8.245,-2.119 m -99.725,-0.065 c -2.186,-1.45 -3.283,-3.36 -3.283,-5.71 v 0 c 0,-2.316 0.757,-4.182 2.283,-5.598 v 0 c 1.516,-1.416 3.853,-2.612 7.005,-3.579 v 0 c 3.743,-1.153 6.213,-2.053 7.388,-2.701 v 0 c 1.174,-0.648 1.766,-1.526 1.766,-2.634 v 0 c 0,-2.404 -2.194,-3.612 -6.586,-3.612 v 0 c -1.394,0 -2.8,0.142 -4.215,0.439 v 0 c -1.417,0.285 -2.591,0.603 -3.535,0.944 v 0 c -0.945,0.34 -1.855,0.746 -2.734,1.196 v 0 c -0.878,0.45 -1.449,0.769 -1.723,0.945 v 0 c -0.264,0.187 -0.473,0.329 -0.627,0.439 v 0 l -1.668,-2.58 0.637,-0.451 c 0.428,-0.296 1.086,-0.669 1.975,-1.097 v 0 c 0.9,-0.428 1.922,-0.845 3.075,-1.273 v 0 c 1.163,-0.418 2.591,-0.78 4.291,-1.077 v 0 c 1.714,-0.296 3.46,-0.45 5.261,-0.45 v 0 c 4.544,0 7.968,0.78 10.286,2.339 v 0 c 2.315,1.558 3.468,3.634 3.468,6.224 v 0 c 0,0.692 -0.055,1.318 -0.164,1.867 v 0 c -0.099,0.559 -0.363,1.218 -0.78,1.987 v 0 c -0.417,0.758 -0.998,1.46 -1.734,2.097 v 0 c -0.746,0.625 -1.8,1.284 -3.184,1.976 v 0 c -1.383,0.681 -3.03,1.295 -4.929,1.833 v 0 c -3.03,0.879 -5.05,1.636 -6.093,2.251 v 0 c -1.043,0.626 -1.559,1.383 -1.559,2.294 v 0 c 0,2.097 1.582,3.151 4.753,3.151 v 0 c 3.755,0 7.455,-1.098 11.122,-3.283 v 0 l 1.569,2.635 c -3.81,2.404 -8.112,3.612 -12.909,3.612 v 0 c -3.921,0 -6.972,-0.724 -9.156,-2.184 m -63.872,-0.429 v 1.954 h -7.904 v -27.665 h 7.904 v 22.396 c 2.317,0.878 4.425,1.317 6.313,1.317 v 0 c 1.735,0 3.106,-0.373 4.128,-1.108 v 0 c 1.009,-0.747 1.778,-2.032 2.294,-3.865 v 0 c 0.516,-1.833 0.768,-4.369 0.768,-7.608 v 0 c 0,-1.976 -0.219,-5.687 -0.658,-11.132 v 0 h 5.599 c 2.195,7.356 3.293,12.79 3.293,16.281 v 0 c 0,2.075 -0.306,3.897 -0.911,5.478 v 0 c -0.615,1.57 -1.472,2.833 -2.569,3.766 v 0 c -1.109,0.943 -2.393,1.646 -3.843,2.107 v 0 c -1.46,0.462 -3.073,0.692 -4.852,0.692 v 0 c -3.413,0 -6.599,-0.867 -9.562,-2.613 m 110.715,1.954 0.472,-3.381 c 0.329,-2.251 0.648,-4.874 0.966,-7.882 v 0 c 0.319,-3.008 0.484,-5.248 0.484,-6.73 v 0 c 0,-4.907 -2.306,-7.366 -6.928,-7.366 v 0 c -2.503,0 -4.281,0.647 -5.336,1.943 v 0 c -1.042,1.306 -1.569,3.107 -1.569,5.423 v 0 c 0,3.348 0.538,9.343 1.602,17.993 v 0 h -7.267 l -0.637,-3.381 c -0.429,-2.251 -0.856,-4.809 -1.285,-7.685 v 0 c -0.427,-2.877 -0.647,-4.939 -0.647,-6.18 v 0 c 0,-1.614 0.263,-3.052 0.791,-4.337 v 0 c 0.526,-1.273 1.229,-2.327 2.129,-3.161 v 0 c 0.901,-0.846 2.009,-1.527 3.317,-2.065 v 0 c 1.305,-0.537 2.689,-0.922 4.148,-1.164 v 0 c 1.45,-0.23 3.042,-0.351 4.754,-0.351 v 0 c 1.702,0 3.293,0.121 4.764,0.351 v 0 c 1.472,0.242 2.855,0.627 4.151,1.164 v 0 c 1.295,0.538 2.393,1.219 3.304,2.065 v 0 c 0.91,0.834 1.624,1.888 2.152,3.161 v 0 c 0.527,1.285 0.79,2.723 0.79,4.337 v 0 c 0,2.81 -0.856,8.562 -2.569,17.246 v 0 z m -64.881,0 0.473,-3.381 c 0.329,-2.251 0.647,-4.874 0.965,-7.882 v 0 c 0.318,-3.008 0.484,-5.248 0.484,-6.73 v 0 c 0,-4.907 -2.306,-7.366 -6.929,-7.366 v 0 c -2.502,0 -4.281,0.647 -5.334,1.943 v 0 c -1.043,1.306 -1.57,3.107 -1.57,5.423 v 0 c 0,3.348 0.538,9.343 1.603,17.993 v 0 h -7.268 l -0.637,-3.381 c -0.428,-2.251 -0.856,-4.809 -1.284,-7.685 v 0 c -0.429,-2.877 -0.648,-4.939 -0.648,-6.18 v 0 c 0,-1.614 0.264,-3.052 0.791,-4.337 v 0 c 0.526,-1.273 1.23,-2.327 2.129,-3.161 v 0 c 0.901,-0.846 2.009,-1.527 3.316,-2.065 v 0 c 1.306,-0.537 2.69,-0.922 4.149,-1.164 v 0 c 1.449,-0.23 3.042,-0.351 4.753,-0.351 v 0 c 1.702,0 3.294,0.121 4.765,0.351 v 0 c 1.471,0.242 2.855,0.627 4.151,1.164 v 0 c 1.295,0.538 2.393,1.219 3.305,2.065 v 0 c 0.91,0.834 1.624,1.888 2.151,3.161 v 0 c 0.527,1.285 0.791,2.723 0.791,4.337 v 0 c 0,2.81 -0.857,8.562 -2.57,17.246 v 0 z" /></g></g></g></g><g
       id="g36"><g
         id="g38"><g
           id="g44"><g
             id="g46"><path
               id="path56"
               style="fill:url(#linearGradient54);stroke:none"
               d="m 458.406,369.49 c -12.323,-1.776 -23.557,-6.926 -32.734,-14.482 v 0 l 7.203,-7.203 c 9.643,7.664 21.85,12.241 35.125,12.241 v 0 l 0.133,-10e-4 v 6.297 3.833 37.041 z m 15.224,11.884 -0.499,-5.994 c -0.038,-0.465 0.308,-0.873 0.771,-0.912 v 0 c 0.465,-0.038 0.873,0.307 0.912,0.772 v 0 l 0.499,5.994 c 0.037,0.464 -0.307,0.873 -0.772,0.911 v 0 c -0.024,0.002 -0.047,0.003 -0.071,0.003 v 0 c -0.434,0 -0.804,-0.333 -0.84,-0.774 m -19.656,-0.214 c -0.46,-0.083 -0.765,-0.522 -0.682,-0.98 v 0 l 1.069,-5.92 c 0.082,-0.459 0.522,-0.763 0.981,-0.681 v 0 c 0.459,0.084 0.765,0.523 0.682,0.98 v 0 l -1.07,5.92 c -0.074,0.408 -0.428,0.695 -0.829,0.695 v 0 c -0.05,0 -0.1,-0.005 -0.151,-0.014 m 29.996,-1.234 -1.294,-5.874 c -0.1,-0.456 0.187,-0.907 0.643,-1.006 v 0 c 0.454,-0.101 0.905,0.187 1.006,0.642 v 0 l 1.294,5.873 c 0.1,0.457 -0.187,0.908 -0.641,1.008 v 0 c -0.062,0.013 -0.123,0.019 -0.183,0.019 v 0 c -0.388,0 -0.737,-0.268 -0.825,-0.662 m -39.783,-1.189 c -0.444,-0.14 -0.69,-0.616 -0.55,-1.059 v 0 l 1.815,-5.735 c 0.141,-0.445 0.616,-0.691 1.06,-0.55 v 0 c 0.444,0.141 0.691,0.616 0.549,1.059 v 0 l -1.815,5.735 c -0.114,0.359 -0.446,0.59 -0.804,0.59 v 0 c -0.084,0 -0.17,-0.013 -0.255,-0.04 m 49.396,-1.472 -2.033,-5.661 c -0.157,-0.439 0.071,-0.923 0.51,-1.08 v 0 c 0.438,-0.158 0.922,0.07 1.08,0.509 v 0 l 2.033,5.661 c 0.157,0.438 -0.07,0.923 -0.51,1.08 v 0 c -0.094,0.034 -0.19,0.05 -0.285,0.05 v 0 c -0.346,0 -0.67,-0.215 -0.795,-0.559 m -59.221,-2.38 c -0.423,-0.199 -0.603,-0.702 -0.405,-1.124 v 0 l 2.565,-5.441 c 0.198,-0.422 0.702,-0.602 1.125,-0.404 v 0 c 0.421,0.199 0.602,0.703 0.402,1.124 v 0 l -2.565,5.441 c -0.144,0.305 -0.448,0.485 -0.764,0.485 v 0 c -0.121,0 -0.243,-0.026 -0.358,-0.081 m 68.835,-1.696 -2.771,-5.338 c -0.215,-0.414 -0.053,-0.924 0.361,-1.139 v 0 c 0.414,-0.215 0.924,-0.053 1.139,0.36 v 0 l 2.77,5.34 c 0.215,0.414 0.053,0.922 -0.36,1.137 v 0 c -0.125,0.065 -0.258,0.096 -0.388,0.096 v 0 c -0.306,0 -0.6,-0.166 -0.751,-0.456 m -77.663,-3.177 c -0.392,-0.252 -0.507,-0.774 -0.256,-1.167 v 0 l 3.239,-5.069 c 0.25,-0.392 0.771,-0.507 1.165,-0.256 v 0 c 0.393,0.25 0.508,0.773 0.257,1.164 v 0 l -3.238,5.071 c -0.161,0.251 -0.434,0.389 -0.713,0.389 v 0 c -0.155,0 -0.313,-0.043 -0.454,-0.132 m 48.931,-10.332 c 13.022,-1.483 24.7,-7.391 33.493,-16.184 v 0 l 0.094,-0.095 1.681,1.681 0.008,-0.009 20.042,20.042 -19.754,-9.863 c -9.896,8.053 -22.15,13.322 -35.564,14.614 v 0 z m 37.329,8.451 -3.43,-4.941 c -0.265,-0.385 -0.17,-0.91 0.213,-1.176 v 0 c 0.383,-0.266 0.909,-0.171 1.176,0.213 v 0 l 3.428,4.941 c 0.266,0.383 0.171,0.909 -0.212,1.175 v 0 c -0.147,0.102 -0.315,0.151 -0.481,0.151 v 0 c -0.267,0 -0.53,-0.127 -0.694,-0.363 m -95.508,-22.564 c -8.053,-9.897 -13.323,-22.149 -14.614,-35.565 v 0 h 10.185 c 1.482,13.022 7.392,24.701 16.185,33.494 v 0 l 0.094,0.093 -1.68,1.681 0.008,0.009 -20.042,20.041 z m 0.755,18.18 c -0.355,-0.3 -0.399,-0.834 -0.099,-1.189 v 0 l 3.885,-4.592 c 0.301,-0.355 0.834,-0.4 1.19,-0.099 v 0 c 0.357,0.301 0.401,0.834 0.1,1.19 v 0 l -3.886,4.592 c -0.167,0.197 -0.405,0.298 -0.645,0.298 v 0 c -0.192,0 -0.386,-0.065 -0.545,-0.2 m 109.979,-9.152 -4.592,-3.886 c -0.355,-0.301 -0.4,-0.834 -0.099,-1.189 v 0 c 0.301,-0.356 0.835,-0.401 1.19,-0.099 v 0 l 4.591,3.885 c 0.356,0.301 0.401,0.834 0.099,1.19 v 0 c -0.167,0.197 -0.405,0.299 -0.645,0.299 v 0 c -0.192,0 -0.386,-0.066 -0.544,-0.2 m -123.825,-6.088 c -0.267,-0.383 -0.171,-0.91 0.212,-1.175 v 0 l 4.941,-3.43 c 0.382,-0.266 0.909,-0.17 1.175,0.213 v 0 c 0.266,0.382 0.17,0.909 -0.213,1.174 v 0 l -4.941,3.43 c -0.147,0.102 -0.314,0.15 -0.481,0.15 v 0 c -0.267,0 -0.53,-0.126 -0.693,-0.362 m 130.113,-2.247 -5.069,-3.239 c -0.393,-0.251 -0.509,-0.774 -0.257,-1.166 v 0 c 0.25,-0.393 0.772,-0.508 1.166,-0.257 v 0 l 5.069,3.238 c 0.392,0.251 0.507,0.773 0.256,1.165 v 0 c -0.161,0.253 -0.434,0.391 -0.712,0.391 v 0 c -0.155,0 -0.313,-0.043 -0.453,-0.132 m -21.041,-7.597 c 7.663,-9.644 12.241,-21.849 12.241,-35.125 v 0 l -0.001,-0.134 h 6.298 3.833 37.04 l -37.725,9.728 c -1.777,12.322 -6.927,23.556 -14.483,32.733 v 0 z m -114.28,1.21 c -0.215,-0.414 -0.052,-0.923 0.361,-1.138 v 0 l 5.339,-2.771 c 0.413,-0.215 0.923,-0.053 1.138,0.361 v 0 c 0.214,0.413 0.054,0.923 -0.36,1.137 v 0 l -5.339,2.771 c -0.125,0.065 -0.258,0.095 -0.389,0.095 v 0 c -0.305,0 -0.6,-0.165 -0.75,-0.455 m 140.236,-2.293 -5.44,-2.565 c -0.422,-0.199 -0.603,-0.702 -0.404,-1.125 v 0 c 0.199,-0.421 0.702,-0.601 1.124,-0.402 v 0 l 5.44,2.565 c 0.422,0.199 0.602,0.702 0.404,1.123 v 0 c -0.144,0.306 -0.448,0.485 -0.764,0.485 v 0 c -0.121,0 -0.244,-0.026 -0.36,-0.081 m -144.46,-7.379 c -0.157,-0.438 0.071,-0.922 0.51,-1.079 v 0 l 5.661,-2.035 c 0.437,-0.157 0.921,0.071 1.079,0.51 v 0 c 0.158,0.439 -0.069,0.923 -0.509,1.079 v 0 l -5.661,2.034 c -0.094,0.034 -0.191,0.05 -0.285,0.05 v 0 c -0.346,0 -0.672,-0.214 -0.795,-0.559 m 148.376,-2.3 -5.734,-1.817 c -0.445,-0.14 -0.692,-0.615 -0.55,-1.06 v 0 c 0.141,-0.443 0.616,-0.69 1.06,-0.549 v 0 l 5.735,1.815 c 0.443,0.142 0.69,0.616 0.549,1.06 v 0 c -0.114,0.36 -0.446,0.59 -0.805,0.59 v 0 c -0.084,0 -0.17,-0.013 -0.255,-0.039 m -151.171,-7.386 c -0.1,-0.455 0.188,-0.907 0.644,-1.006 v 0 l 5.873,-1.296 c 0.455,-0.1 0.906,0.188 1.007,0.644 v 0 c 0.1,0.454 -0.187,0.905 -0.643,1.005 v 0 l -5.875,1.295 c -0.061,0.013 -0.122,0.02 -0.183,0.02 v 0 c -0.387,0 -0.736,-0.269 -0.823,-0.662 m 153.673,-2.27 -5.919,-1.07 c -0.458,-0.083 -0.763,-0.522 -0.68,-0.982 v 0 c 0.082,-0.458 0.522,-0.762 0.981,-0.679 v 0 l 5.918,1.069 c 0.459,0.084 0.763,0.523 0.681,0.981 v 0 c -0.073,0.408 -0.43,0.695 -0.83,0.695 v 0 c -0.05,0 -0.1,-0.004 -0.151,-0.014 m -155.249,-8.166 c -0.039,-0.465 0.306,-0.873 0.771,-0.911 v 0 l 5.995,-0.5 c 0.465,-0.038 0.872,0.307 0.91,0.772 v 0 c 0.039,0.464 -0.306,0.873 -0.771,0.911 v 0 l -5.994,0.499 c -0.024,0.002 -0.048,0.003 -0.071,0.003 v 0 c -0.434,0 -0.804,-0.333 -0.84,-0.774 m 15.803,-6.408 h -3.833 -37.04 l 37.725,-9.727 c 0.787,-5.46 2.237,-10.705 4.263,-15.653 v 0 l 9.991,2.398 c -3.091,6.986 -4.809,14.717 -4.809,22.849 v 0 l 10e-4,0.133 z m 133.736,-6.037 c -0.04,-0.464 0.307,-0.872 0.772,-0.91 v 0 l 5.993,-0.499 c 0.465,-0.039 0.873,0.306 0.912,0.77 v 0 c 0.038,0.466 -0.307,0.873 -0.772,0.912 v 0 l -5.994,0.499 c -0.023,0.002 -0.047,0.003 -0.071,0.003 v 0 c -0.435,0 -0.804,-0.333 -0.84,-0.775 m -14.788,-0.561 c -0.658,-5.772 -2.185,-11.281 -4.448,-16.39 v 0 l 9.99,-2.398 c 2.414,5.888 4.009,12.197 4.643,18.788 v 0 z m -127.166,-5.512 -5.92,-1.069 c -0.457,-0.084 -0.763,-0.523 -0.679,-0.981 v 0 c 0.082,-0.459 0.521,-0.764 0.981,-0.68 v 0 l 5.918,1.069 c 0.459,0.083 0.764,0.522 0.681,0.981 v 0 c -0.073,0.407 -0.429,0.694 -0.83,0.694 v 0 c -0.049,0 -0.1,-0.005 -0.151,-0.014 m 140.531,-3.343 c -0.1,-0.455 0.187,-0.906 0.643,-1.006 v 0 l 5.874,-1.295 c 0.455,-0.099 0.905,0.188 1.007,0.643 v 0 c 0.1,0.456 -0.188,0.906 -0.644,1.006 v 0 l -5.874,1.295 c -0.061,0.014 -0.122,0.02 -0.182,0.02 v 0 c -0.387,0 -0.737,-0.268 -0.824,-0.663 M 399.084,282.6 393.35,280.785 c -0.444,-0.142 -0.69,-0.617 -0.549,-1.06 v 0 c 0.14,-0.444 0.614,-0.692 1.059,-0.55 v 0 l 5.735,1.815 c 0.444,0.14 0.69,0.615 0.55,1.06 v 0 c -0.114,0.359 -0.447,0.589 -0.806,0.589 v 0 c -0.084,0 -0.17,-0.012 -0.255,-0.039 m 135.902,-3.122 c -0.157,-0.438 0.07,-0.923 0.509,-1.08 v 0 l 5.661,-2.033 c 0.439,-0.158 0.923,0.07 1.081,0.508 v 0 c 0.156,0.439 -0.072,0.923 -0.51,1.08 v 0 l -5.661,2.034 c -0.094,0.034 -0.19,0.05 -0.285,0.05 v 0 c -0.346,0 -0.671,-0.214 -0.795,-0.559" /></g></g></g></g><g
       id="g58"><g
         id="g60"><g
           id="g66"><g
             id="g68"><path
               id="path78"
               style="fill:url(#linearGradient76);stroke:none"
               d="m 485.196,262.381 c 1.579,-2.834 2.48,-6.096 2.48,-9.57 v 0 c 0,-0.747 -0.043,-1.484 -0.124,-2.21 v 0 c 16.446,2.875 34.179,3.343 53.469,0.897 v 0 l 8.551,13.917 c -9.293,1.653 -18.228,2.45 -26.832,2.45 v 0 c -13.278,0 -25.763,-1.899 -37.544,-5.484" /></g></g></g></g><g
       id="g80"><g
         id="g82"><g
           id="g88"><g
             id="g90"><path
               id="path100"
               style="fill:url(#linearGradient98);stroke:none"
               d="m 426.584,226.598 c 8.346,5.283 17.044,9.907 26.161,13.748 v 0 c -1.234,1.506 -2.248,3.199 -2.995,5.03 v 0 c -8.078,-5.407 -15.786,-11.698 -23.166,-18.778" /></g></g></g></g><g
       id="g102"><g
         id="g104"><g
           id="g110"><g
             id="g112"><path
               id="path122"
               style="fill:url(#linearGradient120);stroke:none"
               d="m 386.428,265.415 8.55,-13.917 c 19.279,2.445 37.003,1.979 53.442,-0.892 v 0 c -0.08,0.724 -0.124,1.46 -0.124,2.205 v 0 c 0,3.477 0.903,6.742 2.484,9.577 v 0 c -11.773,3.581 -24.25,5.477 -37.519,5.477 v 0 c -8.604,0 -17.54,-0.797 -26.833,-2.45" /></g></g></g></g><g
       id="g124"><g
         id="g126"><g
           id="g132"><g
             id="g134"><path
               id="path144"
               style="fill:url(#linearGradient142);stroke:none"
               d="m 483.234,240.354 c 9.124,-3.843 17.829,-8.468 26.181,-13.756 v 0 c -7.386,7.085 -15.102,13.382 -23.187,18.792 v 0 c -0.746,-1.832 -1.76,-3.527 -2.994,-5.036" /></g></g></g></g><g
       id="g146"><g
         id="g148"><g
           id="g154"><g
             id="g156"><path
               id="path166"
               style="fill:url(#linearGradient164);stroke:none"
               d="m 467.896,342.292 -0.569,-0.153 -42.063,-11.269 -1.56,-0.419 v -53.508 l -22.049,-5.291 c 9.482,0.75 18.575,0.566 27.307,-0.482 v 0 23.061 l 39.037,-10.46 39.012,10.452 V 271.17 c 8.732,1.048 17.824,1.232 27.306,0.482 v 0 l -22.049,5.291 v 53.515 l -1.533,0.412 -42.062,11.269 -0.57,0.153 -0.104,0.028 z m -31.883,-13.942 31.986,8.571 31.986,-8.571 -31.986,-8.571 z m -7.051,-13.494 v 9.985 l 38.365,-10.281 0.569,-0.153 0.103,-0.027 0.105,0.027 0.569,0.153 38.338,10.272 v -9.984 l -39.012,-10.453 z m 0,-14.761 v 3.842 l 39.037,-10.46 39.012,10.452 v -3.841 l -39.012,-10.454 z" /></g></g></g></g><g
       id="g168"><g
         id="g170"><g
           id="g176"><g
             id="g178"><path
               id="path188"
               style="fill:url(#linearGradient186);stroke:none"
               d="m 452.236,252.811 c 0,-8.699 7.052,-15.751 15.75,-15.751 v 0 c 8.699,0 15.751,7.052 15.751,15.751 v 0 c 0,8.699 -7.052,15.751 -15.751,15.751 v 0 c -8.698,0 -15.75,-7.052 -15.75,-15.751 m 13.667,0.279 c -1.139,0.7 -1.897,1.957 -1.897,3.392 v 0 c 0,2.199 1.781,3.981 3.98,3.981 v 0 c 2.198,0 3.981,-1.782 3.981,-3.981 v 0 c 0,-1.436 -0.76,-2.694 -1.9,-3.394 v 0 l 2.114,-7.928 h -4.195 -4.194 z" /></g></g></g></g></g></svg>