<svg width="41" height="39" viewBox="0 0 41 39" fill="none" xmlns="http://www.w3.org/2000/svg">
<rect width="41" height="39" rx="10" fill="#C9A038" fill-opacity="0.16"/>
<path d="M20.3 9.1001C20.4723 9.1001 20.6377 9.16858 20.7596 9.29048C20.8815 9.41238 20.95 9.57771 20.95 9.7501V11.7001L22.25 11.7014C22.7671 11.7014 23.2631 11.9068 23.6288 12.2725C23.9945 12.6382 24.2 13.1342 24.2 13.6514V16.9703C23.4659 17.1201 22.8061 17.519 22.3323 18.0994C21.8585 18.6798 21.5998 19.4061 21.6 20.1553V29.9001H19V16.9053C19 16.2157 18.726 15.5544 18.2384 15.0668C17.7508 14.5792 17.0895 14.3053 16.4 14.3053V13.6514C16.4 13.1342 16.6054 12.6382 16.9711 12.2725C17.3368 11.9068 17.8328 11.7014 18.35 11.7014H19.65V9.7501C19.65 9.57771 19.7184 9.41238 19.8403 9.29048C19.9622 9.16858 20.1276 9.1001 20.3 9.1001ZM17.2372 15.9108C16.8732 15.6547 16.6132 15.6456 16.3948 15.7119C16.3343 15.7352 16.2756 15.763 16.2193 15.7951L12.1464 18.2391C11.8577 18.4124 11.6188 18.6574 11.453 18.9504C11.2871 19.2433 11.2 19.5742 11.2 19.9109V27.9501C11.2 28.4673 11.4054 28.9633 11.7711 29.329C12.1368 29.6947 12.6328 29.9001 13.15 29.9001H17.7V16.9053C17.6999 16.7158 17.6585 16.5286 17.5786 16.3568C17.4986 16.1851 17.3821 16.0328 17.2372 15.9108ZM26.15 18.2001V18.2053H24.85C24.3328 18.2053 23.8368 18.4107 23.4711 18.7764C23.1054 19.1421 22.9 19.6381 22.9 20.1553V29.9001H27.45C27.9671 29.9001 28.4631 29.6947 28.8288 29.329C29.1945 28.9633 29.4 28.4673 29.4 27.9501V20.1501C29.4 19.6329 29.1945 19.1369 28.8288 18.7712C28.4631 18.4055 27.9671 18.2001 27.45 18.2001H26.15Z" fill="black"/>
</svg>
