<svg width="43" height="43" viewBox="0 0 43 43" fill="none" xmlns="http://www.w3.org/2000/svg">
<path d="M34.0069 34.0079C40.9144 27.1008 40.9144 15.9009 34.0069 8.99341C27.0994 2.08549 15.8999 2.08549 8.99246 8.99341C2.08454 15.9009 2.08454 27.1008 8.99246 34.0079C15.8999 40.9153 27.0994 40.9153 34.0069 34.0079Z" fill="#FFDC58"/>
<path d="M7.00436 35.9956C15.0102 44.0015 27.9901 44.0015 35.996 35.9956C44.0013 27.9903 44.0013 15.0103 35.996 7.00447C27.9901 -1.00135 15.0102 -1.00135 7.00436 7.00447C-1.00145 15.0103 -1.00145 27.9903 7.00436 35.9956Z" stroke="#FFDC58" stroke-miterlimit="10"/>
<path d="M20.5634 10.4434V30.6805M30.682 20.5619H10.4448" stroke="white" stroke-width="1.5" stroke-linecap="round" stroke-linejoin="round"/>
</svg>
