<svg width="55" height="55" viewBox="0 0 55 55" fill="none" xmlns="http://www.w3.org/2000/svg">
<g clip-path="url(#clip0_6_3025)">
<path fill-rule="evenodd" clip-rule="evenodd" d="M27.3382 49.5505C31.2377 49.5562 35.0693 48.5305 38.4444 46.5775V39.2987C38.4444 37.2595 37.6343 35.3038 36.1924 33.8618C34.7504 32.4199 32.7947 31.6098 30.7555 31.6098H23.9209C21.8817 31.6098 19.926 32.4199 18.4841 33.8618C17.0421 35.3038 16.2321 37.2595 16.2321 39.2987V46.5775C19.6072 48.5305 23.4388 49.5562 27.3382 49.5505ZM43.5703 39.2987V42.5007C46.5252 39.3373 48.4914 35.3795 49.2273 31.1137C49.9631 26.8479 49.4364 22.4601 47.712 18.4896C45.9876 14.5191 43.1406 11.139 39.5211 8.76478C35.9015 6.39056 31.667 5.12571 27.3382 5.12571C23.0094 5.12571 18.775 6.39056 15.1554 8.76478C11.5358 11.139 8.68881 14.5191 6.96441 18.4896C5.24001 22.4601 4.71335 26.8479 5.44917 31.1137C6.18499 35.3795 8.15122 39.3373 11.1062 42.5007V39.2987C11.1051 36.6565 11.9209 34.0786 13.4416 31.9179C14.9624 29.7572 17.1139 28.1195 19.6015 27.2289C18.3111 25.7446 17.4749 23.9205 17.1926 21.9741C16.9102 20.0277 17.1938 18.0412 18.0093 16.2515C18.8249 14.4618 20.138 12.9444 21.7921 11.8805C23.4462 10.8165 25.3715 10.2507 27.3382 10.2507C29.305 10.2507 31.2302 10.8165 32.8843 11.8805C34.5384 12.9444 35.8516 14.4618 36.6671 16.2515C37.4827 18.0412 37.7662 20.0277 37.4839 21.9741C37.2016 23.9205 36.3653 25.7446 35.0749 27.2289C37.5625 28.1195 39.714 29.7572 41.2348 31.9179C42.7556 34.0786 43.5713 36.6565 43.5703 39.2987ZM27.3382 54.6764C34.5888 54.6764 41.5423 51.7962 46.6693 46.6693C51.7962 41.5423 54.6764 34.5888 54.6764 27.3382C54.6764 20.0877 51.7962 13.1341 46.6693 8.00718C41.5423 2.88027 34.5888 0 27.3382 0C20.0877 0 13.1341 2.88027 8.00718 8.00718C2.88027 13.1341 0 20.0877 0 27.3382C0 34.5888 2.88027 41.5423 8.00718 46.6693C13.1341 51.7962 20.0877 54.6764 27.3382 54.6764ZM32.4641 20.5037C32.4641 21.8631 31.9241 23.1669 30.9628 24.1282C30.0015 25.0895 28.6977 25.6296 27.3382 25.6296C25.9787 25.6296 24.6749 25.0895 23.7136 24.1282C22.7524 23.1669 22.2123 21.8631 22.2123 20.5037C22.2123 19.1442 22.7524 17.8404 23.7136 16.8791C24.6749 15.9178 25.9787 15.3777 27.3382 15.3777C28.6977 15.3777 30.0015 15.9178 30.9628 16.8791C31.9241 17.8404 32.4641 19.1442 32.4641 20.5037Z" fill="#222222"/>
</g>
<defs>
<clipPath id="clip0_6_3025">
<rect width="54.6764" height="54.6764" fill="white"/>
</clipPath>
</defs>
</svg>
