<svg width="26" height="26" viewBox="0 0 26 26" fill="none" xmlns="http://www.w3.org/2000/svg">
<rect width="26" height="26" rx="13" fill="#2E8B57"/>
<path d="M11.4773 15.2273V15.1591C11.4848 14.4356 11.5606 13.8598 11.7045 13.4318C11.8485 13.0038 12.053 12.6572 12.3182 12.392C12.5833 12.1269 12.9015 11.8826 13.2727 11.6591C13.4962 11.5227 13.697 11.3617 13.875 11.1761C14.053 10.9867 14.1932 10.7689 14.2955 10.5227C14.4015 10.2765 14.4545 10.0038 14.4545 9.70455C14.4545 9.33333 14.3674 9.01136 14.1932 8.73864C14.0189 8.46591 13.786 8.25568 13.4943 8.10795C13.2027 7.96023 12.8788 7.88636 12.5227 7.88636C12.2121 7.88636 11.9129 7.95076 11.625 8.07955C11.3371 8.20833 11.0966 8.41098 10.9034 8.6875C10.7102 8.96401 10.5985 9.32576 10.5682 9.77273H9.13636C9.16667 9.12879 9.33333 8.57765 9.63636 8.11932C9.94318 7.66098 10.3466 7.31061 10.8466 7.06818C11.3504 6.82576 11.9091 6.70455 12.5227 6.70455C13.1894 6.70455 13.7689 6.83712 14.2614 7.10227C14.7576 7.36742 15.1402 7.73106 15.4091 8.19318C15.6818 8.6553 15.8182 9.18182 15.8182 9.77273C15.8182 10.1894 15.7538 10.5663 15.625 10.9034C15.5 11.2405 15.3182 11.5417 15.0795 11.8068C14.8447 12.072 14.5606 12.3068 14.2273 12.5114C13.8939 12.7197 13.6269 12.9394 13.4261 13.1705C13.2254 13.3977 13.0795 13.6686 12.9886 13.983C12.8977 14.2973 12.8485 14.6894 12.8409 15.1591V15.2273H11.4773ZM12.2045 18.5909C11.9242 18.5909 11.6837 18.4905 11.483 18.2898C11.2822 18.089 11.1818 17.8485 11.1818 17.5682C11.1818 17.2879 11.2822 17.0473 11.483 16.8466C11.6837 16.6458 11.9242 16.5455 12.2045 16.5455C12.4848 16.5455 12.7254 16.6458 12.9261 16.8466C13.1269 17.0473 13.2273 17.2879 13.2273 17.5682C13.2273 17.7538 13.1799 17.9242 13.0852 18.0795C12.9943 18.2348 12.8712 18.3598 12.7159 18.4545C12.5644 18.5455 12.3939 18.5909 12.2045 18.5909Z" fill="white"/>
</svg>
